<?xml version="1.0" standalone="no"?>
<!DOCTYPE svg PUBLIC "-//W3C//DTD SVG 20010904//EN"
 "http://www.w3.org/TR/2001/REC-SVG-20010904/DTD/svg10.dtd">
<svg version="1.0" xmlns="http://www.w3.org/2000/svg"
 width="512.000000pt" height="512.000000pt" viewBox="0 0 512.000000 512.000000"
 preserveAspectRatio="xMidYMid meet">

<g transform="translate(0.000000,512.000000) scale(0.100000,-0.100000)"
fill="#000000" stroke="none">
<path d="M910 4665 l0 -455 -455 0 -455 0 0 -1360 0 -1360 208 0 c114 0 318
-3 455 -7 l247 -6 0 -449 0 -448 1822 0 1821 0 -6 248 c-4 136 -7 338 -7 450
l0 202 -1815 0 -1815 0 0 1365 0 1365 1814 0 c1102 0 1817 4 1821 9 3 5 2 210
-1 455 l-7 446 -1814 0 -1813 0 0 -455z"/>
</g>
</svg>
