<?xml version="1.0" standalone="no"?>
<!DOCTYPE svg PUBLIC "-//W3C//DTD SVG 20010904//EN"
 "http://www.w3.org/TR/2001/REC-SVG-20010904/DTD/svg10.dtd">
<svg version="1.0" xmlns="http://www.w3.org/2000/svg"
 width="860.000000pt" height="860.000000pt" viewBox="0 0 860.000000 860.000000"
 preserveAspectRatio="xMidYMid meet">

<g transform="translate(0.000000,860.000000) scale(0.100000,-0.100000)"
fill="#000000" stroke="none">
<path d="M4047 8490 c-618 -60 -1112 -290 -1379 -644 -146 -193 -240 -484
-237 -731 l1 -60 166 -82 c954 -469 2076 -1484 2644 -2391 l77 -124 21 34 c41
65 260 516 321 658 343 808 539 1642 490 2093 -33 298 -141 527 -346 733 -256
257 -626 422 -1110 495 -148 23 -504 33 -648 19z"/>
<path d="M3059 4342 c-698 -354 -1318 -794 -1759 -1248 -355 -365 -492 -647
-491 -1010 1 -419 212 -839 622 -1239 430 -419 981 -690 1493 -735 322 -29
625 51 861 228 87 64 197 175 263 263 l42 56 -52 94 c-302 548 -582 1445 -702
2254 -64 429 -91 939 -67 1274 6 90 10 165 8 168 -2 2 -100 -45 -218 -105z"/>
</g>
</svg>
