<?xml version="1.0" standalone="no"?>
<!DOCTYPE svg PUBLIC "-//W3C//DTD SVG 20010904//EN"
 "http://www.w3.org/TR/2001/REC-SVG-20010904/DTD/svg10.dtd">
<svg version="1.0" xmlns="http://www.w3.org/2000/svg"
 width="180.000000pt" height="180.000000pt" viewBox="0 0 180.000000 180.000000"
 preserveAspectRatio="xMidYMid meet">

<g transform="translate(0.000000,180.000000) scale(0.100000,-0.100000)"
fill="#000000" stroke="none">
<path d="M1230 1238 c-20 -21 -20 -29 -14 -195 l7 -173 -31 0 c-22 0 -32 6
-37 20 -11 35 -63 70 -106 70 -33 0 -41 4 -54 30 -16 30 -49 52 -97 64 -20 4
-28 13 -28 27 0 12 -15 36 -34 55 -30 30 -40 34 -83 33 -26 -1 -56 -6 -67 -11
-14 -8 -24 -4 -46 17 -93 89 -250 17 -250 -114 0 -22 -7 -30 -40 -45 -24 -10
-47 -30 -56 -48 -19 -36 -21 -103 -4 -123 10 -12 10 -21 2 -40 -10 -21 -19
-25 -51 -25 -51 0 -107 -46 -117 -95 -5 -26 -12 -34 -35 -39 -26 -5 -42 -17
-76 -60 -15 -17 -18 -86 -4 -86 5 0 12 -11 15 -24 10 -40 76 -149 113 -188 66
-67 70 -68 600 -68 379 0 480 3 506 14 28 11 36 11 52 0 14 -11 63 -14 208
-14 207 0 235 7 256 59 10 24 21 251 37 739 6 186 5 204 -11 222 -17 19 -31
20 -276 20 -254 0 -259 0 -279 -22z m515 -113 c0 -92 -12 -419 -22 -577 l-6
-108 -208 0 -207 0 -6 63 c-19 224 -32 688 -19 701 4 3 110 5 237 4 l231 -3 0
-80z m-1161 40 c20 -9 42 -27 48 -40 6 -14 16 -25 23 -25 17 0 65 24 65 33 0
14 73 -5 97 -26 28 -25 29 -38 4 -68 -18 -22 -20 -23 -38 -8 -10 9 -35 19 -55
23 -45 8 -84 -9 -123 -56 -20 -24 -35 -32 -54 -30 -32 3 -88 -30 -102 -61 -8
-18 -23 -25 -67 -34 -31 -6 -60 -9 -63 -7 -11 6 3 70 20 93 11 15 32 24 60 28
l43 6 -7 45 c-8 55 6 90 48 120 38 26 52 27 101 7z m176 -195 c15 -16 33 -30
40 -30 6 0 23 14 37 30 44 53 117 27 125 -45 3 -32 7 -33 75 -19 37 7 73 -22
73 -58 0 -43 13 -52 53 -38 59 22 67 12 67 -80 l0 -80 -231 2 -231 3 -19 49
c-10 27 -27 58 -37 70 -11 11 -22 39 -25 61 -4 21 -16 52 -27 67 -26 35 -25
52 2 78 31 29 65 25 98 -10z m-152 -96 c16 -18 22 -37 22 -69 0 -31 5 -48 18
-57 23 -17 52 -59 52 -75 0 -10 -56 -13 -260 -13 -145 0 -260 4 -260 9 0 14
34 50 50 52 8 1 32 -1 53 -6 44 -9 46 -7 53 30 11 60 20 67 87 63 l61 -3 7 35
c9 42 44 73 73 64 12 -3 31 -17 44 -30z m625 -289 c9 -21 10 -282 2 -294 -8
-14 -972 -15 -1008 -2 -32 12 -80 62 -103 106 -10 21 -29 56 -41 79 -26 50
-28 83 -6 108 15 17 47 18 583 18 488 0 569 -2 573 -15z m487 -236 c0 -17 -5
-39 -10 -50 -10 -18 -23 -19 -198 -19 -133 0 -192 4 -200 12 -7 7 -12 29 -12
50 l0 38 210 0 210 0 0 -31z"/>
<path d="M520 1070 c-11 -20 -6 -40 8 -40 19 1 42 29 36 44 -8 22 -31 20 -44
-4z"/>
</g>
</svg>
