<?xml version="1.0" standalone="no"?>
<!DOCTYPE svg PUBLIC "-//W3C//DTD SVG 20010904//EN"
 "http://www.w3.org/TR/2001/REC-SVG-20010904/DTD/svg10.dtd">
<svg version="1.0" xmlns="http://www.w3.org/2000/svg"
 width="128.000000pt" height="128.000000pt" viewBox="0 0 128.000000 128.000000"
 preserveAspectRatio="xMidYMid meet">

<g transform="translate(0.000000,128.000000) scale(0.100000,-0.100000)"
fill="#000000" stroke="none">
<path d="M42 1123 c-7 -3 -19 -18 -27 -33 -12 -24 -15 -89 -15 -374 l0 -344
26 -31 25 -31 182 -2 182 -3 0 -35 c-1 -35 -1 -35 -54 -40 -55 -6 -81 -26 -81
-62 0 -17 19 -18 360 -18 341 0 360 1 360 18 0 36 -26 56 -81 62 -54 5 -54 5
-54 40 l0 35 182 3 182 2 25 31 26 31 0 344 c0 362 -3 392 -45 408 -20 7
-1174 7 -1193 -1z m1146 -340 l2 -263 -550 0 -550 0 0 258 c0 142 3 262 7 265
3 4 250 6 547 5 l541 -3 3 -262z"/>
<path d="M148 999 c-21 -12 -24 -59 -6 -77 18 -18 56 -14 75 8 21 24 50 26 79
5 27 -18 39 -7 17 17 -9 10 -30 18 -48 18 -19 0 -39 8 -50 20 -20 22 -41 25
-67 9z m52 -38 c0 -27 -19 -36 -37 -18 -18 18 -9 37 18 37 12 0 19 -7 19 -19z"/>
<path d="M1065 990 c-11 -12 -31 -20 -50 -20 -18 0 -39 -8 -48 -18 -22 -24
-10 -35 17 -17 29 21 60 19 81 -5 35 -39 85 -20 85 32 0 46 -53 63 -85 28z
m60 -20 c9 -15 -14 -40 -31 -33 -22 8 -18 43 5 43 11 0 23 -5 26 -10z"/>
<path d="M561 989 c-106 -21 -255 -123 -276 -190 -16 -48 96 -158 202 -200 81
-32 224 -32 303 -1 106 42 220 153 206 200 -12 37 -109 124 -171 153 -95 45
-173 56 -264 38z m244 -57 c65 -31 165 -118 165 -145 0 -22 -66 -92 -118 -126
-104 -67 -244 -79 -365 -32 -62 24 -177 125 -177 154 0 25 92 113 148 141 73
37 116 46 204 42 61 -3 92 -11 143 -34z"/>
<path d="M580 922 c-14 -5 -78 -69 -81 -81 -7 -27 -4 -100 4 -116 14 -28 75
-85 93 -86 8 0 28 -1 44 -1 17 0 36 1 44 1 8 1 33 19 56 40 39 36 43 45 45 93
3 61 -5 81 -51 125 -29 27 -40 31 -86 31 -29 -1 -60 -3 -68 -6z m70 -142 c0
-5 -4 -10 -10 -10 -5 0 -10 5 -10 10 0 6 5 10 10 10 6 0 10 -4 10 -10z"/>
<path d="M367 794 c-13 -13 5 -24 39 -24 24 0 34 4 32 13 -5 13 -60 22 -71 11z"/>
<path d="M847 794 c-16 -17 -5 -25 31 -22 20 2 37 8 37 13 0 12 -57 19 -68 9z"/>
<path d="M146 644 c-19 -18 -21 -55 -4 -72 18 -18 53 -14 73 8 11 12 31 20 50
20 32 0 75 33 57 44 -5 3 -15 -1 -22 -9 -18 -21 -64 -19 -85 5 -22 24 -48 26
-69 4z m54 -33 c0 -24 -25 -34 -40 -16 -15 18 -5 35 21 35 12 0 19 -7 19 -19z"/>
<path d="M1065 640 c-21 -24 -67 -26 -85 -5 -17 20 -32 8 -20 -16 8 -14 21
-19 49 -19 25 0 44 -7 56 -20 35 -39 85 -20 85 32 0 46 -53 63 -85 28z m60
-20 c9 -15 -14 -40 -31 -33 -22 8 -18 43 5 43 11 0 23 -5 26 -10z"/>
</g>
</svg>
